<svg width="23" height="21" viewBox="0 0 23 21" fill="none" xmlns="http://www.w3.org/2000/svg">
<path d="M20.34 3.11012C19.8292 2.59912 19.2228 2.19376 18.5554 1.9172C17.8879 1.64064 17.1725 1.49829 16.45 1.49829C15.7275 1.49829 15.0121 1.64064 14.3446 1.9172C13.6772 2.19376 13.0708 2.59912 12.56 3.11012L11.5 4.17012L10.44 3.11012C9.40831 2.07842 8.00903 1.49883 6.55 1.49883C5.09097 1.49883 3.69169 2.07842 2.66 3.11012C1.62831 4.14181 1.04871 5.54108 1.04871 7.00012C1.04871 8.45915 1.62831 9.85843 2.66 10.8901L3.72 11.9501L11.5 19.7301L19.28 11.9501L20.34 10.8901C20.851 10.3794 21.2564 9.77293 21.5329 9.10547C21.8095 8.43801 21.9518 7.7226 21.9518 7.00012C21.9518 6.27763 21.8095 5.56222 21.5329 4.89476C21.2564 4.2273 20.851 3.62087 20.34 3.11012V3.11012Z" stroke="#424242" stroke-width="1.33333" stroke-linecap="round" stroke-linejoin="round"/>
</svg>
